<?xml version="1.0" encoding="UTF-8" standalone="no"?>
<!-- Created with Inkscape (http://www.inkscape.org/) -->

<svg
   xmlns:dc="http://purl.org/dc/elements/1.1/"
   xmlns:cc="http://creativecommons.org/ns#"
   xmlns:rdf="http://www.w3.org/1999/02/22-rdf-syntax-ns#"
   xmlns:svg="http://www.w3.org/2000/svg"
   xmlns="http://www.w3.org/2000/svg"
   xmlns:sodipodi="http://sodipodi.sourceforge.net/DTD/sodipodi-0.dtd"
   xmlns:inkscape="http://www.inkscape.org/namespaces/inkscape"
   width="10.17254mm"
   height="10.319693mm"
   viewBox="0 0 36.044432 36.56584"
   id="svg2"
   version="1.1"
   inkscape:version="0.91 r13725"
   sodipodi:docname="advanced_amp.svg">
  <defs
     id="defs4" />
  <sodipodi:namedview
     id="base"
     pagecolor="#ffffff"
     bordercolor="#666666"
     borderopacity="1.0"
     inkscape:pageopacity="0.0"
     inkscape:pageshadow="2"
     inkscape:zoom="3.959798"
     inkscape:cx="-21.696054"
     inkscape:cy="15.749746"
     inkscape:document-units="px"
     inkscape:current-layer="layer1"
     showgrid="false"
     fit-margin-top="0"
     fit-margin-left="0"
     fit-margin-right="0"
     fit-margin-bottom="0"
     inkscape:window-width="1920"
     inkscape:window-height="1056"
     inkscape:window-x="0"
     inkscape:window-y="24"
     inkscape:window-maximized="1" />
  <metadata
     id="metadata7">
    <rdf:RDF>
      <cc:Work
         rdf:about="">
        <dc:format>image/svg+xml</dc:format>
        <dc:type
           rdf:resource="http://purl.org/dc/dcmitype/StillImage" />
        <dc:title></dc:title>
      </cc:Work>
    </rdf:RDF>
  </metadata>
  <g
     inkscape:label="Layer 1"
     inkscape:groupmode="layer"
     id="layer1"
     transform="translate(-368.33786,-624.09868)">
    <path
       sodipodi:type="spiral"
       style="fill:#4d4d4d;fill-rule:evenodd;stroke:#000000;stroke-width:1px;stroke-linecap:butt;stroke-linejoin:miter;stroke-opacity:1"
       id="path4136"
       sodipodi:cx="288.57144"
       sodipodi:cy="620.93365"
       sodipodi:expansion="1"
       sodipodi:revolution="5.8372855"
       sodipodi:radius="157.33957"
       sodipodi:argument="-19.408155"
       sodipodi:t0="0"
       d="m 288.57144,620.93365 c 3.43806,-2.14879 4.59275,3.57431 3.57143,5.71429 -2.7677,5.79922 -10.82369,4.97509 -15,1.42858 -7.47044,-6.34388 -5.83564,-17.96358 0.71428,-24.28572 9.61227,-9.278 25.20916,-6.74615 33.57143,2.85713 11.1456,12.79967 7.6794,32.49342 -4.99999,42.85715 -15.95572,13.0417 -39.79639,8.62472 -52.14286,-7.14284 -14.95324,-19.09664 -9.57708,-47.10997 9.2857,-61.42859 22.22914,-16.87399 54.43015,-10.53387 70.7143,11.42856 18.80069,25.3565 11.49362,61.75476 -13.57142,80.00002 -28.48048,20.73142 -69.08245,12.45543 -89.28573,-15.71427 -22.66501,-31.60215 -13.41873,-76.41242 17.85713,-98.57145 34.72214,-24.60072 83.74408,-14.38316 107.85716,19.99998 26.53801,37.84089 15.34845,91.07705 -22.14284,117.14288 -40.95868,28.47654 -98.41104,16.3144 -126.42859,-24.28569 -30.41604,-44.07575 -17.28089,-105.74587 26.42855,-135.71431 47.19222,-32.35633 113.08137,-18.24782 145.00002,28.5714 34.29726,50.30822 19.2151,120.41742 -30.71425,154.28574 -53.42383,36.23871 -127.75394,20.18268 -163.57146,-32.85711 -38.1806,-56.53911 -21.1505,-135.09084 34.99997,-172.85718 59.65412,-40.12286 142.42807,-22.11853 182.14289,37.14283 42.06544,62.76891 23.08675,149.7656 -39.28568,191.42861 -65.8835,44.0083 -157.10336,24.05512 -200.71433,-41.42854 -45.95139,-68.99791 -25.02362,-164.44134 43.5714,-210.00004 23.83805,-15.8325 51.95329,-24.83234 80.54302,-25.90286"
       transform="matrix(0.12513376,0,0,0.12113728,351.09022,567.99969)" />
  </g>
</svg>
