<?xml version="1.0" encoding="UTF-8" standalone="no"?>
<!-- Generator: Adobe Illustrator 18.0.0, SVG Export Plug-In . SVG Version: 6.00 Build 0)  -->

<svg
   xmlns:dc="http://purl.org/dc/elements/1.1/"
   xmlns:cc="http://creativecommons.org/ns#"
   xmlns:rdf="http://www.w3.org/1999/02/22-rdf-syntax-ns#"
   xmlns:svg="http://www.w3.org/2000/svg"
   xmlns="http://www.w3.org/2000/svg"
   xmlns:sodipodi="http://sodipodi.sourceforge.net/DTD/sodipodi-0.dtd"
   xmlns:inkscape="http://www.inkscape.org/namespaces/inkscape"
   version="1.1"
   id="Capa_1"
   x="0px"
   y="0px"
   viewBox="0 0 31.999999 32.000003"
   xml:space="preserve"
   inkscape:version="0.91 r13725"
   sodipodi:docname="chemical.svg"
   width="32"
   height="32.000004"><metadata
     id="metadata4321"><rdf:RDF><cc:Work
         rdf:about=""><dc:format>image/svg+xml</dc:format><dc:type
           rdf:resource="http://purl.org/dc/dcmitype/StillImage" /><dc:title></dc:title></cc:Work></rdf:RDF></metadata><defs
     id="defs4319" /><sodipodi:namedview
     pagecolor="#ffffff"
     bordercolor="#666666"
     borderopacity="1"
     objecttolerance="10"
     gridtolerance="10"
     guidetolerance="10"
     inkscape:pageopacity="0"
     inkscape:pageshadow="2"
     inkscape:window-width="1920"
     inkscape:window-height="1080"
     id="namedview4317"
     showgrid="false"
     inkscape:zoom="15.418853"
     inkscape:cx="22.952378"
     inkscape:cy="15.92069"
     inkscape:window-x="-19"
     inkscape:window-y="-11"
     inkscape:window-maximized="0"
     inkscape:current-layer="Capa_1"
     showguides="false"
     inkscape:snap-page="true"
     fit-margin-top="0"
     fit-margin-left="0"
     fit-margin-right="0"
     fit-margin-bottom="0"><inkscape:grid
       type="xygrid"
       id="grid4148"
       originx="0"
       originy="1.455078e-06" /></sodipodi:namedview><path
     d="m 31.17184,16.619883 -6.342988,-3.63049 0,-7.2428805 c 0,-0.58709 -0.316227,-1.12903 -0.82816,-1.42258 l -7.171478,-4.10416 c -0.513053,-0.29303 -1.142937,-0.29303 -1.656254,0 l -7.1725317,4.10416 c -0.5120648,0.29355 -0.8279622,0.83549 -0.8279622,1.42258 l 0,7.2423605 -6.34424026,3.63049 C 0.31596331,16.912913 0,17.455053 0,18.041882 l 0,8.21178 c 0,0.58684 0.31596331,1.12904 0.82822584,1.42259 l 7.17226836,4.10416 c 0.2567902,0.14642 0.5426398,0.21959 0.8282258,0.21959 0.2858496,0 0.5716992,-0.0732 0.8282259,-0.21959 l 6.3429881,-3.62996 6.34424,3.62996 c 0.256527,0.14642 0.542311,0.21959 0.828226,0.21959 0.28585,0 0.571436,-0.0732 0.828226,-0.21959 l 7.171148,-4.10416 C 31.684103,27.382702 32,26.840503 32,26.253663 l 0,-8.21171 c 6.6e-5,-0.58684 -0.315832,-1.12904 -0.82816,-1.42207 z M 16.001186,3.5385525 l 5.514697,3.15636 0,6.2939605 -5.516015,3.15682 -5.514696,-3.15636 0,-6.2944905 5.516014,-3.15629 z M 8.82872,28.461633 l -5.5157508,-3.15629 0,-6.315 5.4974322,-3.14624 5.5333446,3.16669 0,6.29448 -5.515026,3.15636 z m 19.858443,-3.15629 -5.514697,3.15629 -5.516014,-3.15629 0,-6.29344 5.534333,-3.16825 5.496378,3.14675 0,6.31494 z"
     id="path4285"
     style="fill:#000000;fill-opacity:1"
     inkscape:connector-curvature="0" /></svg>