<?xml version="1.0" encoding="UTF-8" standalone="no"?>
<!-- Created with Inkscape (http://www.inkscape.org/) -->

<svg
   xmlns:dc="http://purl.org/dc/elements/1.1/"
   xmlns:cc="http://creativecommons.org/ns#"
   xmlns:rdf="http://www.w3.org/1999/02/22-rdf-syntax-ns#"
   xmlns:svg="http://www.w3.org/2000/svg"
   xmlns="http://www.w3.org/2000/svg"
   xmlns:sodipodi="http://sodipodi.sourceforge.net/DTD/sodipodi-0.dtd"
   xmlns:inkscape="http://www.inkscape.org/namespaces/inkscape"
   width="10.17254mm"
   height="10.319693mm"
   viewBox="0 0 36.044432 36.56584"
   id="svg2"
   version="1.1"
   inkscape:version="0.91 r13725"
   sodipodi:docname="dna_amp.svg">
  <defs
     id="defs4" />
  <sodipodi:namedview
     id="base"
     pagecolor="#ffffff"
     bordercolor="#666666"
     borderopacity="1.0"
     inkscape:pageopacity="0.0"
     inkscape:pageshadow="2"
     inkscape:zoom="7.919596"
     inkscape:cx="-21.696054"
     inkscape:cy="25.851271"
     inkscape:document-units="px"
     inkscape:current-layer="layer1"
     showgrid="false"
     fit-margin-top="0"
     fit-margin-left="0"
     fit-margin-right="0"
     fit-margin-bottom="0"
     inkscape:window-width="1920"
     inkscape:window-height="1056"
     inkscape:window-x="0"
     inkscape:window-y="24"
     inkscape:window-maximized="1" />
  <metadata
     id="metadata7">
    <rdf:RDF>
      <cc:Work
         rdf:about="">
        <dc:format>image/svg+xml</dc:format>
        <dc:type
           rdf:resource="http://purl.org/dc/dcmitype/StillImage" />
        <dc:title></dc:title>
      </cc:Work>
    </rdf:RDF>
  </metadata>
  <g
     inkscape:label="Layer 1"
     inkscape:groupmode="layer"
     id="layer1"
     transform="translate(-368.33786,-624.09868)">
    <path
       style="opacity:1;fill:#4d4d4d;fill-opacity:1;stroke:none;stroke-width:2.79999995;stroke-miterlimit:4;stroke-dasharray:none;stroke-dashoffset:0;stroke-opacity:1"
       d="m 371.6758,625.56174 1.40564,0 1.40564,0 1.40565,0 1.40563,0 c 0,0 -0.0152,9.81766 1.96388,14.24353 1.44566,3.23315 4.15889,5.93768 6.93852,8.321 5.11307,4.38404 17.49244,10.63551 17.49244,10.63551 l -4.06074,-0.14373 -3.90456,0 c 0,0 -8.46736,-5.38716 -12.02604,-8.7671 -2.96732,-2.81828 -5.75879,-5.92483 -7.6232,-9.45405 -2.43547,-4.61028 -4.40286,-14.83516 -4.40286,-14.83516 z"
       id="rect4161"
       inkscape:connector-curvature="0"
       sodipodi:nodetypes="cccccaacccaac" />
    <path
       style="opacity:1;fill:#4d4d4d;fill-opacity:1;stroke:none;stroke-width:2.79999995;stroke-miterlimit:4;stroke-dasharray:none;stroke-dashoffset:0;stroke-opacity:1"
       d="m 401.42856,625.63357 -1.40565,0 -1.40563,0 -1.40565,0 -1.40564,0 c 0,0 0.71215,5.6983 0.22268,8.4946 -0.52666,3.00878 -1.38221,6.15473 -3.34632,8.60846 -5.75532,7.18994 -23.27119,16.09698 -23.27119,16.09698 l 4.06073,-0.14373 3.90455,0 c 0,0 8.5399,-5.32376 12.02606,-8.7671 3.38567,-3.34409 6.35429,-7.15932 8.40411,-11.32245 2.00148,-4.06496 3.62195,-12.96676 3.62195,-12.96676 z"
       id="rect4161-3"
       inkscape:connector-curvature="0"
       sodipodi:nodetypes="cccccaacccaac" />
    <rect
       style="opacity:1;fill:#4d4d4d;fill-opacity:1;stroke:none;stroke-width:2.79999995;stroke-miterlimit:4;stroke-dasharray:none;stroke-dashoffset:0;stroke-opacity:1"
       id="rect4315"
       width="19.366629"
       height="2.1558468"
       x="377.14221"
       y="633.92072" />
    <rect
       style="opacity:1;fill:#4d4d4d;fill-opacity:1;stroke:none;stroke-width:2.79999995;stroke-miterlimit:4;stroke-dasharray:none;stroke-dashoffset:0;stroke-opacity:1"
       id="rect4315-7"
       width="22.334095"
       height="2.1558468"
       x="375.42419"
       y="628.93921" />
    <rect
       style="opacity:1;fill:#4d4d4d;fill-opacity:1;stroke:none;stroke-width:2.79999995;stroke-miterlimit:4;stroke-dasharray:none;stroke-dashoffset:0;stroke-opacity:1"
       id="rect4315-5"
       width="19.366629"
       height="2.1558468"
       x="376.8298"
       y="638.56873" />
    <rect
       style="opacity:1;fill:#4d4d4d;fill-opacity:1;stroke:none;stroke-width:2.79999995;stroke-miterlimit:4;stroke-dasharray:none;stroke-dashoffset:0;stroke-opacity:1"
       id="rect4315-3"
       width="12.182233"
       height="2.1558468"
       x="380.57819"
       y="643.31152" />
    <rect
       style="opacity:1;fill:#4d4d4d;fill-opacity:1;stroke:none;stroke-width:2.79999995;stroke-miterlimit:4;stroke-dasharray:none;stroke-dashoffset:0;stroke-opacity:1"
       id="rect4315-3-5"
       width="15.774429"
       height="2.1558468"
       x="379.01636"
       y="655.24048" />
  </g>
</svg>
