<?xml version="1.0" encoding="UTF-8" standalone="no"?>
<svg
   xmlns:dc="http://purl.org/dc/elements/1.1/"
   xmlns:cc="http://creativecommons.org/ns#"
   xmlns:rdf="http://www.w3.org/1999/02/22-rdf-syntax-ns#"
   xmlns:svg="http://www.w3.org/2000/svg"
   xmlns="http://www.w3.org/2000/svg"
   xmlns:sodipodi="http://sodipodi.sourceforge.net/DTD/sodipodi-0.dtd"
   xmlns:inkscape="http://www.inkscape.org/namespaces/inkscape"
   width="8"
   height="8"
   viewBox="0 0 8 8"
   id="svg4243"
   version="1.1"
   inkscape:version="0.91 r13725"
   sodipodi:docname="document_open.svg">
  <metadata
     id="metadata4251">
    <rdf:RDF>
      <cc:Work
         rdf:about="">
        <dc:format>image/svg+xml</dc:format>
        <dc:type
           rdf:resource="http://purl.org/dc/dcmitype/StillImage" />
        <dc:title />
      </cc:Work>
    </rdf:RDF>
  </metadata>
  <defs
     id="defs4249">
    <clipPath
       clipPathUnits="userSpaceOnUse"
       id="clipPath5057">
      <path
         inkscape:connector-curvature="0"
         id="path5059"
         d="m 0.0110485,8.545e-4 3.9885242,0 L 6.9992523,3.0005341 6.9992523,8 0,8 Z"
         style="display:inline;fill:none;fill-rule:evenodd;stroke:#000000;stroke-width:1;stroke-linecap:butt;stroke-linejoin:miter;stroke-miterlimit:4;stroke-dasharray:none;stroke-opacity:1" />
    </clipPath>
  </defs>
  <sodipodi:namedview
     pagecolor="#ffffff"
     bordercolor="#666666"
     borderopacity="1"
     objecttolerance="10"
     gridtolerance="10"
     guidetolerance="10"
     inkscape:pageopacity="0"
     inkscape:pageshadow="2"
     inkscape:window-width="1920"
     inkscape:window-height="1080"
     id="namedview4247"
     showgrid="false"
     inkscape:zoom="90.509668"
     inkscape:cx="3.5086517"
     inkscape:cy="3.9960439"
     inkscape:window-x="0"
     inkscape:window-y="0"
     inkscape:window-maximized="0"
     inkscape:current-layer="layer1"
     inkscape:snap-grids="true"
     inkscape:snap-others="false"
     inkscape:snap-global="true" />
  <g
     inkscape:groupmode="layer"
     id="layer1"
     inkscape:label="garbage">
    <path
       style="display:inline;fill:none;fill-rule:evenodd;stroke:#000000;stroke-width:0.001;stroke-linecap:butt;stroke-linejoin:miter;stroke-miterlimit:4;stroke-dasharray:none;stroke-opacity:1"
       d="m 2.8671875,0 4.140625,0 -2.5e-6,4.375"
       id="path4298"
       inkscape:connector-curvature="0"
       sodipodi:nodetypes="ccc" />
    <path
       d="M 4,0 4,3 7,3 M 7,3 4,0"
       id="path4290"
       style="display:inline;fill:#ffffff;fill-opacity:0"
       inkscape:connector-curvature="0"
       sodipodi:nodetypes="ccccc" />
    <path
       style="display:inline;fill:none;fill-rule:evenodd;stroke:#000000;stroke-width:1;stroke-linecap:butt;stroke-linejoin:miter;stroke-miterlimit:4;stroke-dasharray:none;stroke-opacity:1"
       d="m 0.01104854,8.545e-4 3.98852416,0 L 6.9992523,3.0005341 6.9992523,8 0,8 Z"
       id="path5048"
       inkscape:connector-curvature="0"
       clip-path="url(#clipPath5057)" />
  </g>
  <g
     inkscape:groupmode="layer"
     id="layer2"
     inkscape:label="default"
     style="display:inline">
    <path
       d="M 0,0 0,8 7,8 7,4 3,4 3,0 0,0 Z"
       id="path4292"
       style="fill:#ffffff;fill-opacity:0"
       inkscape:connector-curvature="0" />
    <path
       d="M 1,2 2,2 2,3 1,3 1,2 Z"
       id="path4288"
       inkscape:connector-curvature="0" />
    <path
       d="M 1,4 2,4 2,5 1,5 1,4 Z"
       id="path4286"
       inkscape:connector-curvature="0" />
    <path
       d="M 1,6 5,6 5,7 1,7 1,6 Z"
       id="path4245"
       inkscape:connector-curvature="0" />
    <path
       style="opacity:1;fill:#000000;fill-opacity:1;fill-rule:nonzero;stroke:#ffffff;stroke-width:0.00000781;stroke-miterlimit:4;stroke-dasharray:none;stroke-opacity:1"
       d="m 3.0013711,1.9996469 0,-1.99609378 0.4960738,0 0.4960738,0 0.00197,1.49804688 0.00197,1.4980469 1.5019532,0.00197 1.5019531,0.00197 0,0.4960738 0,0.4960738 -2,0 -2,0 0,-1.9960937 z"
       id="path4318"
       inkscape:connector-curvature="0" />
  </g>
</svg>
